<svg width="32" height="32" viewBox="0 0 32 32" fill="none" xmlns="http://www.w3.org/2000/svg">
<g clip-path="url(#clip0_1_12)">
<rect width="32" height="32" fill="white"/>
<rect width="32" height="32" rx="4" fill="#FBC58A"/>
<path d="M10.9995 14.4346C13.3488 14.4346 15.2596 11.8703 15.2596 8.71755C15.2596 5.56502 13.3487 3 10.9995 3C8.65096 3 6.73993 5.56495 6.73993 8.71755C6.73993 11.8703 8.65096 14.4346 10.9995 14.4346Z" fill="black"/>
<path d="M23.6351 19.9959C23.5478 19.8769 23.464 19.7646 23.4192 19.6681C22.4667 17.6292 19.8556 15.2254 15.6254 15.1656L15.4626 15.1647C11.2974 15.1647 8.70579 17.4412 7.66889 19.5726C7.63308 19.6455 7.5543 19.7401 7.47085 19.8402C7.37209 19.9574 7.27439 20.0774 7.19085 20.2077C6.31491 21.5704 5.86831 23.1046 5.9342 24.5274C6.00326 26.038 6.63569 27.2513 7.71194 27.9434C8.14678 28.2227 8.616 28.3635 9.10829 28.3635C10.1234 28.3635 11.0528 27.7917 12.1298 27.1295C12.8145 26.7075 13.5218 26.272 14.3075 25.9461C14.3955 25.9171 14.7563 25.8728 15.3464 25.8728C16.048 25.8728 16.5519 25.9352 16.6596 25.9724C17.4265 26.3109 18.1 26.7551 18.7515 27.1837C19.7501 27.8419 20.6931 28.4631 21.7162 28.4631C22.1553 28.4631 22.5808 28.3472 22.9824 28.1191C25.1974 26.8606 25.6194 23.4079 23.9235 20.4228C23.8384 20.273 23.737 20.1331 23.6351 19.9959Z" fill="black"/>
<path d="M20.0579 14.4346C22.4061 14.4346 24.3173 11.8703 24.3173 8.71755C24.3173 5.56502 22.4061 3 20.0579 3C17.7084 3 15.7976 5.56495 15.7976 8.71755C15.7976 11.8703 17.7084 14.4346 20.0579 14.4346Z" fill="black"/>
<path d="M27.0539 11.4988C25.1711 11.4988 23.6976 13.4515 23.6976 15.9443C23.6976 18.4359 25.172 20.3888 27.0539 20.3888C28.9357 20.3888 30.4111 18.4359 30.4111 15.9443C30.4111 13.4516 28.9366 11.4988 27.0539 11.4988Z" fill="black"/>
<path d="M7.7132 15.9443C7.7132 13.4516 6.23875 11.4988 4.35675 11.4988C2.47468 11.4988 1 13.4516 1 15.9443C1 18.4359 2.47468 20.3888 4.35675 20.3888C6.23883 20.3888 7.7132 18.4359 7.7132 15.9443Z" fill="black"/>
</g>
<defs>
<clipPath id="clip0_1_12">
<rect width="32" height="32" fill="white"/>
</clipPath>
</defs>
</svg>
